<?xml version="1.0" encoding="UTF-8" standalone="no"?>
<svg
   xmlns:dc="http://purl.org/dc/elements/1.1/"
   xmlns:cc="http://creativecommons.org/ns#"
   xmlns:rdf="http://www.w3.org/1999/02/22-rdf-syntax-ns#"
   xmlns:svg="http://www.w3.org/2000/svg"
   xmlns="http://www.w3.org/2000/svg"
   xmlns:sodipodi="http://sodipodi.sourceforge.net/DTD/sodipodi-0.dtd"
   xmlns:inkscape="http://www.inkscape.org/namespaces/inkscape"
   version="1.1"
   height="14"
   width="14"
   viewBox="0 0 14 14"
   id="svg2"
   sodipodi:docname="amenity_shelter_firepit.svg"
   inkscape:version="1.0.1 (3bc2e813f5, 2020-09-07)">
  <sodipodi:namedview
     pagecolor="#ffffff"
     bordercolor="#666666"
     borderopacity="1"
     objecttolerance="10"
     gridtolerance="10"
     guidetolerance="10"
     inkscape:pageopacity="0"
     inkscape:pageshadow="2"
     inkscape:window-width="2560"
     inkscape:window-height="1387"
     id="namedview6"
     showgrid="false"
     inkscape:zoom="36"
     inkscape:cx="7.1332812"
     inkscape:cy="5.6932229"
     inkscape:window-x="-8"
     inkscape:window-y="-8"
     inkscape:window-maximized="1"
     inkscape:current-layer="svg2" />
  <defs
     id="defs3053" />
  <metadata
     id="metadata8">
    <rdf:RDF>
      <cc:Work
         rdf:about="">
        <dc:format>image/svg+xml</dc:format>
        <dc:type
           rdf:resource="http://purl.org/dc/dcmitype/StillImage" />
        <dc:title></dc:title>
      </cc:Work>
    </rdf:RDF>
  </metadata>
  <path
     id="rect4777"
     d="M 7,0.13888889 0,4.1388889 H 2 L 3,3.7384983 v 4.8828126 0.017578 c -1.776e-4,0.174764 0.090907,0.336939 0.2402344,0.427734 0.1542783,0.09325 0.346811,0.09624 0.5039062,0.0078 C 3.9018858,8.9861749 3.999712,8.8196469 4,8.6388889 V 3.3381077 l 3,-1.1992188 3,1.1992188 v 5.3007812 c -1.777e-4,0.174764 0.09091,0.336938 0.240234,0.427734 0.154278,0.09326 0.346812,0.09624 0.503907,0.0078 C 10.901886,8.9861749 10.999712,8.8196469 11,8.6388889 V 3.7384983 l 1,0.4003906 h 2 z"
     style="fill:#734a08;fill-opacity:1;fill-rule:evenodd;stroke:none;stroke-opacity:1"
     sodipodi:nodetypes="cccccccccccccccccccc" />
  <path
     id="path4157-6"
     d="M 6.2328756,4.487444 C 7.3368227,6.7532802 1.5448479,8.2380362 6.5813405,11.341906 L 6.799131,11.262715 C 5.5451096,9.4479439 10.634504,7.3205773 6.2328756,4.487444 Z M 8.5229761,6.8092225 C 9.2328549,8.8959419 6.809063,9.4938409 7.5699775,10.981562 L 8.711728,10.5671 C 9.1697936,9.4496669 10.342968,8.5486618 8.5229761,6.8092225 Z M 3.2682844,10.57634 a 0.33793911,0.33793911 0 0 0 -0.097676,0.657331 l 2.8484363,1.036155 -2.8471164,1.034835 a 0.33402697,0.33402697 0 0 0 0.2270302,0.628294 l 3.5968437,-1.308064 3.6087228,1.312022 a 0.33819904,0.33819904 0 0 0 0.22967,-0.636212 L 7.9857595,12.264547 10.832876,11.229711 A 0.33399959,0.33399959 0 0 0 10.72596,10.5803 0.33399959,0.33399959 0 0 0 10.605845,10.60143 L 7.0090018,11.909482 3.4002787,10.597459 a 0.33793911,0.33793911 0 0 0 -0.1319939,-0.02113 z"
     style="fill:#734a08;fill-opacity:1;stroke:none;stroke-width:0.675811" />
</svg>
